# xmcd
#
# Track frame offsets:
#	150
#	14312
#	30687
#	41527
#	57625
#	70150
#	83857
#	93626
#	107693
#	118576
#	135719
#	151288
#	161875
#	172653
#	183286
#
# Disc length: 2648 seconds
#
# Revision: 0
# Processed by: cddbd v1.5.2PL0 Copyright (c) Steve Scherf et al.
# Submitted via: EasyCDDAExtractor 10.0.2.1
#
DISCID=c20a560f
DTITLE=Joao Marcio and Fabiano - Santarena
DYEAR=2011
DGENRE=Sertanejo
TTITLE0=Enquanto A Lua Existir
TTITLE1=Empresario
TTITLE2=Gps
TTITLE3=Estrategia
TTITLE4=31 De Dezembro (Acustico)
TTITLE5=Sai Da Minha Cola
TTITLE6=Tesouro Estrela De Ouro
TTITLE7=Casa Ds Primas
TTITLE8=Ta Com Do
TTITLE9=Para Tudo
TTITLE10=Chama A Nasa
TTITLE11=Tras Ela De Volta
TTITLE12=Pistoleira
TTITLE13=Reconciliacao
TTITLE14=Dama De Vermelho
EXTD=
EXTT0=
EXTT1=
EXTT2=
EXTT3=
EXTT4=
EXTT5=
EXTT6=
EXTT7=
EXTT8=
EXTT9=
EXTT10=
EXTT11=
EXTT12=
EXTT13=
EXTT14=
PLAYORDER=
